<svg width="1920" height="1000" viewBox="0 0 1920 1000" fill="none" xmlns="http://www.w3.org/2000/svg">
<path d="M0 0C443.19 0 886.38 0 1343 0C1343 53.79 1343 107.58 1343 163C1162.49 163 981.98 163 796 163C796.19 258.6 796.19 258.6 796.38 356.12C796.41 376.21 796.44 396.3 796.48 417C796.52 435.08 796.52 435.08 796.56 453.16C796.58 461.18 796.59 469.21 796.6 477.23C796.61 486.51 796.63 495.79 796.66 505.07C796.67 509.8 796.68 514.54 796.68 519.27C796.72 608.19 815.76 694.75 870 767C870.43 767.58 870.86 768.16 871.3 768.75C889 792.52 909.54 815.84 933 834C934.86 835.58 936.71 837.16 938.56 838.75C1012.51 900.25 1104.25 921.97 1206.58 922.4C1211.4 922.42 1216.22 922.45 1221.04 922.47C1230.11 922.52 1239.18 922.56 1248.25 922.59C1260.54 922.64 1272.84 922.7 1285.13 922.76C1304.42 922.85 1323.71 922.92 1343 923C1343 948.41 1343 973.82 1343 1000C899.81 1000 456.62 1000 0 1000C0 670 0 340 0 0Z" fill="black"/>
</svg>
