<svg width="500" height="500" viewBox="0 0 500 500" fill="none" xmlns="http://www.w3.org/2000/svg">
<path d="M255.75 2H256V172.75H256.25L257.5 166L258.75 157.75L264.25 124.75L269.75 91.5L274.25 64L277.75 43L280.5 26L283 10.75L284.25 4.75H284.5L284.25 9L282.25 25.75L280 44.25L276.5 75.25L275 87.75L272.75 107.75L271 122.75L268.75 143L266.5 162.75L265.25 172.75L265 174.5L266.75 169L270 157.25L275 140.25L278.5 128L283.25 111.5L290.75 85.5L296.5 65.25L301 49.75L305.25 34.75L309.25 20.75L311 14.5L312 11.5L312.75 10.5L312.5 12.5L308.5 29.25L305.25 42.75L302.75 53.25L297.5 75.75L294.75 87.25L290 107.5L284.75 130L276.5 165.25L274.5 173.25L274 175.5L273.5 176.75L274 176.5L276.75 169.75L280.25 161.25L283.5 153.5L288.25 142.25L296 123.75L298 119L307 97.5L310.75 88.5L315.5 77.25L319 68.75L321.5 62.75L326.25 51.5L330.25 41.75L332.75 35.75L336.25 27.25L339 20.75L340 18.75L340.25 19.75L337.25 28L332.75 40.25L328 53.25L325.75 59.5L320.25 74.75L315 89L310.25 102.25L308 108.25L305.5 115.5L302.75 123L299 133.25L296.75 139.75L295 144.5L289.5 159.75L285 172.25L283.25 176.75L282 179.5H282.75L283.25 178.25L287 171.25L290.25 165.5L293.25 160.25L295.75 155.75L299 150L302 144.75L305.5 138.5L309 132.5L312 127L315.25 121.25L319.25 114.25L323 107.5L326.5 101.25L328.75 97.25L332.75 90.25L336.5 83.5L340 77.25L343.25 71.5L347 64.75L350.75 58.25L354.5 51.5L357.75 45.75L361.5 38.75L365 32.75L366 31.25L366.25 32L360 44.5L357.5 49.25L309 146.25L306.75 151L304.25 155.75L300.5 163.25L298.25 168L296 172.25L294 176.5L291.5 181L290 184L291.25 182.75L294 179L296 176L299.25 171.5L302.25 167.5L305.5 163L309 158.25L312.25 153.75L315.75 149L318.5 145.25L321 141.75L324.5 137L327.75 132.5L331.25 127.75L334 124L336.5 120.5L340 115.75L349.75 102.25L352.75 98.25L355.75 94L359.25 89.25L361.75 85.75L364.5 82L367.75 77.5L370.75 73.5L374.25 68.75L377.25 64.5L380.5 60L383.5 55.75L390 46.75L391.25 45.5L390.75 47L387.25 52.5L384 57.25L379.25 64.25L377.25 67.25L374.5 71.5L370.75 77.25L368.5 80.75L364.75 86.5L360 93.75L353.75 103.25L350 109L345.75 115.5L341.25 122.25L338.75 126.25L335.75 130.75L332 136.5L327.25 143.75L324 148.75L318.75 156.75L315 162.5L310.25 169.75L306.25 176L299.5 186L297.5 189L299.25 187.5L302 184.5L302.5 183.75H303L303.5 182.75L305.75 180.25L307.5 178.5L309.25 176.5L312.75 172.75L316.5 168.75L318.25 166.75L325.75 158.75L326.5 157.75H327L327.5 156.75L331.25 152.75L334 149.75L335.75 147.75H336.25L336.75 146.75L339 144.5L340.75 142.5L343 140L350.5 132L353.25 129L355.5 126.5L358.5 123.25L362.25 119.25L365 116.25L366.75 114.25L370.25 110.5L373.25 107.25L376.75 103.5L378.5 101.5L381.5 98.25L383.25 96.5L385 94.5L388.75 90.5L391.5 87.5L395.5 83.25L398.5 80L402 76.25L404.25 73.5L406 71.75L407.75 69.75L411.5 65.75L413.5 63.5V64.25L411.5 67L408.75 70.25L405.75 73.75L402.5 77.5L400.25 80.25L397.75 83L395.5 85.75L392.5 89.25L390.25 92L386.75 96.25L384.5 99L381.5 102.5L379.25 105.25L376.5 108.5L374.25 111.25L371.5 114.5L369.25 117.25L366.5 120.5L364.25 123.25L361.25 126.75L359 129.5L356.25 132.75L354 135.5L351.25 138.75L349 141.5L346 145L343.75 147.75L341 151L338.75 153.75L336 157L333.75 159.75L331 163L328.75 165.75L326 169L322.5 173.25L319.75 176.5L317.5 179.25L314.5 182.75L312.25 185.5L309.25 189L307 191.75L304.75 194.25L304.5 195L307 193L309 191L311 189.25L314.5 186.25L317.75 183.5L319.75 181.75L323.25 178.75L326 176.5L328.5 174.25L331.25 172L334.75 169L337 167L339.75 164.75L342.75 162L345.5 159.75L349 156.75L352.75 153.5L355.5 151.25L358.25 148.75L360.75 146.75L363.5 144.25L366.25 142L369.75 139L372.25 136.75L375 134.5L377.75 132L380.5 129.75L388 123.25L390.75 121L393.75 118.25L396.5 116L399 113.75L401.75 111.5L405.5 108.25L409 105.25L411.75 103L415.5 99.75L418.25 97.5L420.75 95.25L422.75 93.5L425.5 91L428.25 88.75L430.75 86.5L433.5 84.25L434.5 83.5L434 84.5L428.25 90.25H427.75V90.75L425.75 92.5L424 94.25L422 96L417.75 100L415.75 101.75L411.75 105.5L409.5 107.75L407.5 109.5L404.25 112.75L402.25 114.5L399 117.75L397 119.5L394.5 122L392.5 123.75L389.25 127H388.75V127.5L386.75 129.25L384 132L382 133.75L379.75 136L377.75 137.75L375.5 140L373.5 141.75L370.25 145L368.25 146.75L365.75 149.25L363.75 151L360.75 154L358.75 155.75L356.5 158L354.5 159.75L351.25 163H350.75V163.5L348.75 165.25L346.25 167.75L344.25 169.5L341 172.75L339 174.5L337.25 176.25H336.75V176.75L334.75 178.5L331.5 181.75L329.5 183.5L326.75 186.25H326.25V186.75L324.25 188.5L321.5 191.25L319.5 193L317.5 195L315.5 196.75L311.5 200.5L310.5 201.75L314.5 199L318.75 196L340.5 181.5L345.25 178.25L348.25 176.25L355.25 171.5L368.75 162.5L371.25 160.75L375 158.25L383.5 152.5L386.5 150.5L395.75 144.25L406.5 137L412.5 133L415.75 130.75L434.5 118.25L440 114.5L444 111.75L449.75 107.75L452 106.25L452.5 106.5L450.25 108.5L440.75 115.5L436.25 118.75L433.25 121L428.5 124.5L423.25 128.5L420.5 130.5L397.5 147.75L392.75 151.25L388.5 154.5L383.75 158L375.75 164L371 167.5L365.75 171.5L361 175L328 199.75L322.75 203.75L318 207L315.5 209L317 208.5L319.5 207L322.25 205.5L330.75 201.25L335.5 198.75L341 196L345.75 193.5L378.25 176.75L387.5 172L392.25 169.5L397.25 167L402 164.5L412.25 159.25L417 156.75L434 148L445.25 142.25L451.5 139L456.25 136.5L462 133.5L466.25 131.25L466.75 131.5L465.5 132.5L454.25 139L447.5 142.75L440.75 146.75L433.75 150.75L427 154.75L420 158.75L414 162.25L401 169.75L395.5 173L390.25 176L383.75 179.75L377 183.75L371.25 187L359.25 194L352.75 197.75L348.5 200.25L330.5 210.75L324.75 214L320 216.75H320.5L324.5 215.25L331.5 212.5L436.75 173L447.25 169L456 165.75L469 160.75L474.75 158.5L478.5 157.25L479.25 157.5L474.5 159.75L461 165.5L451 169.75L443 173.25L424 181.5L416.5 184.75L404.25 190L397.5 193L375 202.75L364.75 207.25L356 211L345.75 215.5L336.5 219.5L326.5 223.75L323.5 225L323.25 225.25L328.75 224L334 222.5L407.75 204.25L461.25 191L487.75 184.25L488.5 184.5L487.25 185.25L480.5 187.25L456 194.5L447.75 197L414.75 207L337.75 230.25L328.5 233L325.5 233.75V234.25L334.5 232.75L409 223.25L484.75 213.5L493 212.5H494.25L493.5 213L484.75 214.75L475.5 216.25L416.75 226.75L403.75 229L388.75 231.75L327.25 242.75H334.5L382.75 242.25L414.5 242L429.25 241.75L489.75 241H497.25V241.25L493.25 241.75L479.25 242.75L463.5 243.5L352.25 250.25L330.5 251.5L327.5 251.75L333 252.5L355.25 254.75L486 268.5L497.5 270V270.25H494.25L491 270L483.75 269.75L473 269L339.5 261.5L327 260.5L326.75 261L329.25 261.5L342 264.25L359.75 268.25L467.5 292.5L478 294.75L488.5 297.25L492 298.25L492.25 298.75L483.25 297.25L351.75 274.25L333.25 271L325.75 269.5L325 269.25V269.75L327.25 270.5L341 275.25L354.5 280L365 283.75L372.25 286.25L395.75 294.5L422.75 304L434.75 308.25L452 314.25L479.25 323.75L483.75 325.5L484.75 326L484.5 326.5L482.5 325.75L480.25 325.25L473.75 323.25L463.75 320.25L452.25 316.75L355.25 288L346 285.25L329.25 280.25L322.25 278L323.25 278.75L327.25 280.75L340.75 287.25L347.75 290.75L353.5 293.5L363.25 298.25L369.25 301.25L375 304L382 307.5L387.75 310.25L394 313.25L405.5 319L411.25 321.75L451.75 341.5L457.5 344.25L464 347.25L468 349.25L473.75 352.25L474 352.75L472.5 352.5L462 348L454.5 344.75L447.75 341.75L439 338L424 331.5L410.5 325.75L369 308L348.5 299.25L327.5 290.25L320 286.75L318.5 286.25L320.75 288L326.5 291.5L330.25 294L335 297L340.75 300.75L346.25 304.25L352.5 308.25L361 313.75L367.25 317.75L371.5 320.5L377.75 324.5L382 327.25L394.5 335.25L403 340.75L408.5 344.25L412.75 347L418.25 350.5L422.5 353.25L428 356.75L434.25 360.75L439 363.75L449.25 370.25L453.25 372.75L460 377.25L461.25 378.5L460.25 378.25L456.25 376L451 373L444.5 369.25L439 366L433 362.5L426 358.5L419.5 354.75L414.25 351.75L408.25 348.25L402.5 345L392 339L385.5 335.25L380.25 332.25L367.25 324.75L348 313.75L341.5 310L329.25 303L322.75 299.25L317.75 296.25L314.5 294.25H314L316.75 296.75L320.75 299.75L324.25 302.75L326.75 304.75L330 307.5L332.5 309.5L336.75 313L339.5 315.25L343.5 318.5L347 321.5L350.5 324.25L353.75 327L359.25 331.5L362.5 334.25L366 337L369.25 339.75L377.5 346.5L381.75 350L387.25 354.5L395.75 361.5L399.25 364.25L402.75 367.25L406.25 370L409.75 373L413.25 375.75L416.5 378.5L422 383L424.5 385L428.5 388.25L431 390.25L434.25 392.75L437.5 395.5L441 398.25L444.75 401.75H444L440.5 399.25L436 396L432.75 393.5L427.5 389.5L423.5 386.5L414 379.5L409 375.75L404.25 372.25L399 368.25L395.5 365.75L390.5 362L366.75 344.5L358.75 338.5L339.75 324.5L335.75 321.5L316.75 307.5L313.25 304.75L310.75 302.75L308.25 301L309.75 303L313.25 306.5L315 308L316.75 310L319 312.25L320.75 314.25L324.25 317.75L326 319.75L332.25 326L334 328L339 333L340.75 335L344.5 338.75L346.25 340.75L350.5 345L352.25 347L358.25 353L360 355L364.75 359.75L366.5 361.75L370.5 365.75L372.25 367.75L376.25 371.75L378 373.75L387 382.75L388.75 384.75L392.75 388.75L394.5 390.75L399 395.25L400.75 397.25L404.75 401.25V401.75L405.75 402.25L407.5 404.25L421.5 418.25L423.25 420.25L425 422L426 423.25L425.75 423.75L423.25 421.5L416.75 415.5L414 412.75L412 411L409.5 408.5L407.5 406.75L404.75 404L402.75 402.25L400.25 399.75L398.25 398L396.5 396.25L394.5 394.5L392.5 392.5L390.5 390.75L388 388.25L386 386.5L383.5 384L381.5 382.25L379.25 380L377.25 378.25L375.25 376.25L373.25 374.5L360.75 362.75L357.5 359.75L355.75 358L353.75 356.25L350.75 353.25L348.75 351.5L346.5 349.25L344.5 347.5L342.25 345.25L340.25 343.5L332 335.75L327.75 331.75L324.75 329L323 327.25L321 325.5L318.75 323.25L316.75 321.5L314.5 319.25L312.5 317.5L309.5 314.5L307.5 312.75L302.25 307.5L301.75 307.25L303.5 310L306.5 313.5L310 318.25L312.5 321.5L314.75 324.5L317.25 327.75L321 332.75L324.5 337.25L328 342L330 344.5L333 348.5L336.5 353L340 357.75L343.5 362.25L346.5 366.25L349 369.5L352.75 374.5L356.25 379L358.5 382L369 395.75L371.5 399L378.75 408.5L390 423.25L392.5 426.5L395.5 430.25L398.5 434.25L402 438.75L404.5 442.25L405 443.5L403.75 442.25L400.75 439L398.5 436.25L395.75 433L393 429.5L389.75 425.75L387.75 423.25L384.75 419.75L382.5 417L380.5 414.75L378.25 412L376 409.5L373.75 406.75L371 403.5L367.5 399.25L364.5 395.75L362.25 393L359 389.25L356.75 386.5L354.5 384L352.5 381.5L349.5 378L341.25 368.25L339 365.5L336 362L333.25 358.75L331 356L328 352.5L325.75 349.75L322.5 346L320.25 343.25L318 340.75L316 338.25L313 334.75L310.75 332L307.5 328.25L305.25 325.5L302.25 322L300 319.25L296.75 315.25L295.25 313.5V313H294.75L296.25 316L298.75 319.75L303 327L305.5 331.25L309.5 338L313.75 345.25L316 349L318.5 353.25L322.5 360L326.75 367.25L330.5 373.5L334 379.5L337.25 385L342 393L346.25 400.25L349.25 405.25L353.25 412L356.5 417.5L360.25 423.75L364.5 431L368.25 437.25L372.5 444.25L376.25 450.5L381.5 459.5L381.25 460L380.25 458.75L374.25 449.75L368.75 441.25L362.5 431.75L355.5 421.25L352.75 417L350.25 413.25L335.75 391.25L328.75 380.75L322 370.5L319.5 366.75L312.25 355.75L307.25 348.25L302 340.25L296.5 332L292.75 326.25L289.75 321.5L287 317.5L288.75 321.75L291.25 327L294.5 334.5L298 342.25L305 358L309.75 368.75L316.75 384.5L321.5 395.25L328.5 411L330.5 415.75L332.25 419.5L336.75 429.5L341.25 439.75L345.75 449.75L348.5 455.75L351.75 463L355.25 470.75L356.5 473.75L356.25 474.25L354.75 471.75L351 464.5L348.25 458.75L345.75 454L343.5 449.25L341.25 445L338.5 439.25L336 434.5L325.5 413.5L323 408.75L315.25 393.25L312.75 388.5L303.25 369.5L300.75 364.75L294.25 351.75L292 347.5L282.75 329L280 323.25L279 321.5L279.75 324.25L283 334.5L288.5 352.25L293.25 367.5L296.75 378.75L302.75 398L306.25 409.25L310.5 423L314.25 435L319.75 452.75L322.75 462.25L325 469.25L329.5 483.5L329.75 485L329 484.25L327.75 481L325 473.5L320.75 461.75L316 448.5L312.75 439.75L307 424L302.75 412.5L297.5 398L293.75 388L288.5 373.5L284.75 363.5L279.5 349L277.75 344.5L275.5 338L274 334L272.25 329L270.5 324.5L271.25 329.25L273.5 340.5L277.25 360.75L284 396.75L289.25 425L292.5 442L295.25 457L300.25 482.5L301.75 490.5V492L301.25 491.25L300 486.75L295.75 469L292.5 455L289.25 441.25L286 428L282.25 412.25L279.25 399.5L276 386.25L273.25 374.5L269.75 360.25L266.5 346.5L263.25 332.5L261.75 326.5V329.25L262.75 342L264.75 370.75L267 403.75L270.25 451.5L272.25 478L273.5 495.75L273.25 496.5H273L271.5 485.5L269.75 470L265.75 436.25L262.25 406.75L259.25 381.75L256.75 361L254 337.5L253 328.75V327H252.5L252.25 336.5L251.25 359.25L250 384.25L249.25 400.5L248.25 421.25L247 446.75L245.75 476.25L244.75 495.5L244.5 498H244.25L244 494.25V327H243.75L241.75 339.25L235.5 377L233.5 389.25L232 398L227 428.25L221 464.75L218.25 482L216.25 493.75L215.75 494.5V491.25L217.5 476.25L220 455.25L224.75 414.25L230.75 361.75L233 342L235 326L235.25 325.25H234.75L234.25 327.75L232 335.75L229.5 344.5L224.75 361L219.25 380L217.5 386.25L212.25 404.25L206.75 423.5L201 443.5L196.75 458.25L191.25 477.75L189 485.5L187.75 489.5L187.25 489.75L187.75 486.75L191.5 471L194.25 459.5L198.25 442.5L203.5 420L205.75 410.75L210.25 391.5L213.5 377.5L216 367L221.25 344.25L224.5 331L226.25 323.75L226.5 323.25H226L225.25 325.75L224 328.5L220.25 337.75L216.25 347.25L213.75 353.25L209.75 362.75L205.25 373.5L200.5 384.75L196.75 393.75L192 405L188.25 414L185.25 421.25L181.5 430.25L177.5 439.75L174 448L170 457.75L165.25 469.25L161.5 478.25L160.25 480.75L160 480L161.75 475L165.5 464.75L167.75 458.75L169.25 454.5L171.25 449.25L173.25 443.5L175.75 436.75L178 430.25L182.5 418L186 408.25L190 397.25L195.5 382L204.25 357.75L206.75 351L209.25 343.75L212.5 335L214 330.75L217.25 322.25L217.75 320.25L216.5 322.25L215 325.25L212.5 329.75L211 332.25L209.5 335L205.75 341.75L202.25 348L199.25 353.25L196 359L193.5 363.5L189.5 370.5L185.75 377.25L182.75 382.5L179.25 388.75L176.25 394L172.5 400.75L169.25 406.5L167 410.5L164.5 415L161.25 420.75L157.75 427L154.25 433L151.5 438L148.25 443.5L146.75 446.5L144.5 450.5L140.75 457.25L137.75 462.5L136.25 465.5L134.25 468.5L134 468L136 463.5L138.5 458.75L141.25 453.25L143.75 448.5L189.75 356.5L192.25 351.25L206.25 323.25L207.75 320.75L210 316L209 317L203 325.5L199.75 330L197 333.75L193.5 338.5L187 347.5L183.5 352.25L180.25 356.75L176.75 361.5L173.5 366L170 370.75L167.25 374.5L164.75 378L161.25 382.75L158 387.25L154.5 392L152.5 394.75L146 403.75L142.5 408.5L139.25 413L135.75 417.75L133.25 421.25L130.25 425.25L128.25 428L124.75 432.75L122.25 436.25L118.75 441.25L115.75 445.5L112.5 450L109.5 454L109.25 453.5L111.5 449.75L121.5 434.75L124.75 429.75L130 421.75L132.75 417.5L143.25 401.5L148.75 393.25L151.25 389.25L153.75 385.5L160 376L163.75 370.25L167 365.25L171.25 358.75L176.5 350.75L179.25 346.5L184 339.25L186.25 335.75L193 325.5L196.25 320.5L198.75 316.75L201.25 313.25L202.75 310.75L200.75 312.5L199 314.5L196.5 317.25L194.75 319.25L193.75 320.5H193.25L192.75 321.5L191 323.25L189.25 325.25L185.75 329L182.75 332.25L181.75 333.5H181.25L180.75 334.5L178.25 337L176.5 339L175.75 340H175.25L174.75 341L173 342.75L171.25 344.75L169.75 346.5H169.25L168.75 347.5L166.25 350L164.5 352L161 355.75L158.25 358.75L155.25 362L151.5 366L149.25 368.5L145.75 372.25L143.5 374.75L141.75 376.5L141.5 377H141L140.5 378L136.5 382.25L134.25 384.75L131.25 388L127.25 392.25L124.25 395.5L122.5 397.5L118.5 401.75L117.5 403H117L116.5 404L114 406.5L112.25 408.5L108.5 412.5L105.75 415.5L102.25 419.25L100 421.75L97 425.25L93 429.5L90.75 432L89 434L87 436V435.25L89.75 431.75L92.75 428.25L95 425.5L97.5 422.75L99.75 420L102.75 416.5L105 413.75L107.75 410.5L110 407.75L112.5 404.75L114.75 402L117.75 398.5L119.75 396L122.75 392.5L124.75 390L127.75 386.5L130 383.75L133 380.25L135.25 377.5L138.25 374L140.5 371.25L143.5 367.75L145.75 365L148.5 361.75L150.75 359L153.5 355.75L155.75 353L158.5 349.75L160.75 347L163.5 343.75L165.75 341L168.75 337.5L170.75 335L173.75 331.5L175.75 329L178.75 325.5L180.75 323L183.5 319.75L185.75 317L188.75 313.5L190.75 311L193.75 307.75L195.5 305.5L195.25 305.25L192.75 307.5L190.75 309.25L188 311.75L185.25 314L182.75 316.25L180 318.5L173 324.5L169.25 327.75L166 330.5L145 348.5L141.75 351.25L138 354.5L134.75 357.25L131 360.5L128.25 362.75L125.75 365L123 367.25L120 370L117.25 372.25L113.75 375.25L110 378.5L106.5 381.5L103.25 384.25L100.75 386.5L98 388.75L87.5 397.75L85 400L82.25 402.25L79 405.25L76.25 407.5L73.5 410L70.75 412.25L68 414.75L66.25 415.75V415.25L67.5 414L69 412.75L72.75 409L74.75 407.25L78.75 403.5L81 401.25L83 399.5L86.25 396.5L91 391.75L93 390L96 387L98 385.25L102.25 381.25L104.5 379L106.5 377.25L110.5 373.25L112.5 371.5L114.75 369.25L116.75 367.5L121 363.5L123.5 361L125.5 359.25L128.75 356L130.75 354.25L133 352L135 350.25L139.25 346.25L141.75 343.75H142.25L142.5 343L144.5 341.25L147.75 338L149.75 336.25L152.25 333.75L154.25 332L158.25 328.25L160.75 325.75H161.25L161.5 325L163.5 323.25L167 319.75L169 318L172 315L174 313.25L176.25 311L178.25 309.25L181.75 305.75L183.75 304L187.25 300.75L189.25 299L190 298L185.25 301.25L181 304.25L166.75 313.75L159.75 318.5L144.75 328.5L140.75 331.25L131.75 337.25L124.75 342L118.75 346L114 349.25L108 353.25L101.75 357.5L98.75 359.5L88.75 366.25L85.75 368.25L75 375.5L69 379.5L65 382.25L59.25 386.25L48.75 393.25L48.25 393L51.25 390.5L55.5 387.5L58.75 385L68.25 378L71.5 375.5L79.5 369.5L84.25 366L89.5 362L93 359.5L98.25 355.5L102.25 352.5L107 349L112.25 345L115 343L118 340.75L122.75 337.25L126 334.75L130.75 331.25L136 327.25L145.5 320.25L150.75 316.25L155.5 312.75L160.75 308.75L165.5 305.25L168.75 302.75L173.5 299.25L178.5 295.5L182 293L184.25 291.25L183.25 291.5L175.25 295.75L166.5 300.25L160.75 303.25L125.25 321.5L115 326.75L108.25 330.25L92.75 338.25L88 340.75L82.5 343.5L77.75 346L69 350.5L50.5 360L43.5 363.75L36.25 367.5L34 368.75L33.25 368.5L37.25 366L43.5 362.5L50.25 358.5L54.75 356L59 353.5L71 346.5L77.5 342.75L83.5 339.25L90 335.5L96 332L102.5 328.25L108.5 324.75L115 321L121 317.5L127.5 313.75L133.5 310.25L140 306.5L146 303L152.5 299.25L159.75 295L166.25 291.25L172.25 287.75L178.5 284.25L180 283.25L177.5 284L169.25 287.25L135.25 300L124.5 304L111.25 309L72.75 323.5L64 326.75L46.75 333.25L35 337.75L25.75 341.25L21.25 343L20.25 342.75L26.25 340L33.25 337L46.75 331.25L54.25 328L64.5 323.5L75 319L83 315.5L130.25 295L141.25 290.25L149.75 286.5L169.5 278L174.75 275.75L177 275V274.5L169.75 276.5L153 280.75L132.5 285.75L111.5 291L71.25 301L36.75 309.5L24.25 312.75L13.25 315.5H12L12.25 315L23 311.75L34 308.5L78.75 295L147.5 274.25L160 270.5L170.25 267.5L174.25 266.25H174.75V265.75L170.75 266.5L154 268.75L42 283L13.75 286.75L7 287.5H5.5L6.25 287L72.25 275.25L132.5 264.5L158 260L168 258.25L172.75 257.25V257L165.25 257.25L127.5 257.75L16.75 259H2V258.75L14.5 257.75L152.75 249.5L170.25 248.5H173V248L166 247.5L144 245.25L111.25 241.75L78.25 238.25L64.5 236.75L13 231.5L3.75 230.25V230H7.5L18.25 230.5L46.75 232.25L127.75 236.75L149.5 238L166.25 239L173 239.5V239L166.5 237.75L154.5 235L141 232L42.5 209.75L25.5 206L16.5 204L10 202.5L7.5 201.75V201.5L10 201.75L27.75 204.75L43 207.5L163.75 228.5L172.5 230.25H174.5L169.75 228.5L163 226.25L152.5 222.5L145.25 220L134.75 216.25L127.5 213.75L87.75 199.75L58 189.25L51 186.75L43.75 184.25L29.75 179.5L15.75 174.5L14.25 173.75L15 173.5L28 177.25L32.75 178.75L42.75 181.75L50 184L70.25 190L141 211L160.25 216.75L169.75 219.5L177.25 222H178L170 218L151.75 209.25L137.75 202.25L132 199.5L124.5 195.75L118.75 193L96.75 182.25L87.75 177.75L82 175L73.5 170.75L67.75 168L61.5 165L57.5 163L51.25 160L44.5 156.75L38.5 154L27.5 148.5L25.5 147.25L26 147L34.5 150.5L45.25 155.25L51.75 158L55 159.5L67.25 164.75L130.75 192L137.25 194.75L150.75 200.5L160.5 204.75L171.25 209.25L176.25 211.5L181.75 214L181.5 213.75L178.75 211.75L173 208.25L168.75 205.5L163.25 202L154.75 196.5L148.5 192.5L143.5 189.25L137.25 185.25L132.25 182L126 178L121.75 175.25L116.25 171.75L112 169L105.75 165L100.75 161.75L95 158L90.25 155L85.25 151.75L74.25 144.75L69.25 141.5L58.25 134.5L52.25 130.75L46 126.75L39.25 122.25L38.75 121.5L40 122L44.25 124.25L50.25 127.75L53.75 129.75L63.5 135.5L69.5 139L76.5 143L83 146.75L90 150.75L103 158.25L110 162.25L116 165.75L122.25 169.25L128.25 172.75L134.75 176.5L162.75 192.5L169.25 196.25L178 201.25L183.75 204.75L186.5 206.25L183.75 203.75L180.25 201L176.25 197.75L172.75 195L169.25 192L165.75 189.25L162.25 186.25L156.75 181.75L153.5 179L151 177L148.25 174.75L145 172L142.5 170L139.75 167.75L135.5 164.25L131.5 161L127.25 157.5L121.75 153L118.5 150.25L116 148.25L113.25 146L110 143.25L106.5 140.5L102.75 137.25L99.25 134.5L96 131.75L92.5 129L89.25 126.25L85.75 123.5L82.25 120.5L78.75 117.75L75.25 114.75L71.75 112L67.75 108.75L64.25 106L61 103.25L58.25 101L55.75 98.75L55 98.25L55.25 97.75L59.5 100.75L63 103.25L66.25 105.75L71.25 109.5L75.75 113L80.5 116.5L84.5 119.5L94 126.5L99 130.25L103.75 133.75L108.75 137.5L118.25 144.5L123.5 148.5L127 151L130 153.25L149 167.25L153 170.25L167.25 180.75L171.25 183.75L180.75 190.75L185 194L192 199.25L190.25 197L178.75 185.5L177 183.5L172 178.5L170.25 176.5L167 173.25L165.25 171.25L160.75 166.75L159 164.75L154.75 160.5L153 158.5L147 152.5L145.25 150.5L140.25 145.5L138.5 143.5L133.5 138.5L131.75 136.5L127.25 132L125.5 130L121.5 126L119.75 124L115.25 119.5L113.5 117.5L107.5 111.5V111L106.75 110.75L105 108.75L101 104.75L99.25 102.75L93.5 97V96.5L92.75 96.25L91 94.25L79.5 82.75L77.75 80.75L76.5 79.5V79H76L74.25 77L73.75 76L74.75 76.5L77 78.75L79 80.5L81 82.5L83 84.25L86.25 87.5L88.25 89.25L91.25 92.25L93.25 94L97 97.75L101 101.25V101.75L102 102.25L104 104.25L106 106L108.25 108.25L110.25 110L112.75 112.5L114.75 114.25L117 116.5L119 118.25L121 120.25L123 122L125.5 124.5L126 124.75V125.25L127 125.75L130.5 129.25L132.5 131L136.75 135L140.5 138.5L149 146.5L152.75 150L155.75 152.75L158.25 155.25L160.25 157L162.25 159L164.25 160.75L166 162.5L168 164.25L172 168L176.25 172L178 173.75L180 175.5L182 177.5L184 179.25L188 183L190.5 185.5L192.5 187.25L198 192.75L198.5 193L196.25 189.75L193.5 186.5L190.25 182L187.5 178.5L185 175.25L173 159.5L170 155.5L167.5 152.25L165.25 149.25L162 145L150.75 130.25L146.75 125L143 120L139.5 115.5L136 110.75L126 97.75L123.75 94.75L121.25 91.5L118.25 87.5L114.25 82.25L110.5 77.25L107.5 73.5L104.5 69.5L101.5 65.75L97.75 60.75L95.25 57.25L95.5 56.75L97.75 59.25L100 62L102.5 64.75L105.25 68.25L108.25 71.75L110.5 74.5L114 78.75L117 82.25L119.25 85L122.25 88.5L124.5 91.25L127.75 95L130 97.75L133 101.25L135.25 104L138.25 107.5L140.5 110.25L143.5 113.75L145.75 116.5L149 120.25L151.25 123L154.25 126.5L157 129.75L159.25 132.5L165.25 139.5L167.5 142.25L170.5 145.75L172.75 148.5L175 151L177 153.5L180 157L182.75 160.25L185 163L188 166.5L190.25 169.25L192.5 171.75L195.25 175.25L197.75 178L200 180.75L205 187V186.25L202.75 182.5L200.25 178.5L196 171.25L193.75 167.5L191.25 163.25L187 156.25L184.75 152.25L180.5 145.25L178.25 141.25L175 135.75L172.75 132L168.5 124.75L166.25 121L155 102L150.75 94.75L146.75 88L143.5 82.5L139.75 76.25L136.25 70.25L132 63.25L129.25 58.5L125 51.5L121.25 45.25L118.5 40.25L118.75 39.75L122 44.5L124.5 48.25L127.25 52.5L129.5 56L137 67.5L141.5 74.25L143.25 77L154.25 93.5L156.75 97.5L163.25 107.25L170.5 118.25L177 128L179.75 132.25L193.75 153.25L197 158.25L201.5 165L205.75 171.5L208.25 175.25L212 181.25L213 182.25L212 180L208 171.25L201 155.5L196.25 144.75L178.25 104.25L173.75 94L169 83.5L164.5 73.25L159.5 62L156.25 54.75L152.25 45.75L148.25 37L145.5 30.75L143.5 26L143.75 25.5L145.75 29L151 39.5L153.75 45.25L163.5 64.75L166 69.5L177.75 93L180.25 97.75L186.25 109.75L188.75 114.5L197.5 132L199.75 136.25L207.5 151.75L209.75 156L217.75 172L220.5 177.75L221 178.5L220.25 175.5L216.5 164L212.25 150.25L206.5 131.75L202 117.25L196 98L192.5 86.5L190 78.75L187.5 70.5L185 62.75L181 49.75L175.75 33.25L172.5 22.75L170.25 15.5L170.5 14.75L171.75 17.5L176.25 30L179 37.5L181.5 44.75L186 57L189.25 65.75L194.5 80.25L198.25 90.25L202.5 102L206.75 113.5L211.5 126.5L215.75 138L219.75 149L222.25 155.5L224.25 161.25L226.25 166.5L228 171.75L229.5 175.5L228.5 169.5L227.25 163.5L223.75 144.75L217.75 112.75L214.5 95.25L209.75 70L204.5 42L200.5 21.25L198.25 9V7.75L198.75 8.25L201 17.25L205.5 36.75L209 51.5L216 80.5L221.25 102.5L224.5 116L228.75 133.75L233.75 154.75L235.75 163L237.5 170.75L238.25 173.5V170.75L237.5 162.5L236.5 147.75L233 96.25L230.75 64L229 38.5L227.5 19L226.75 7.25V3.25L227.25 4L229.75 25.5L231.25 39L233.5 58L236.5 82.75L239.5 107.75L244 145.5L246 162.5L247 172L247.25 172.5L247.5 170.5L248.5 146L250 115.25L251.75 78.75L252.75 58L253.75 36L254.25 22.75L255 8.75L255.5 3L255.75 2Z" fill="black"/>
<path d="M9 258.25H10.5V258.5L16.75 258.75V259H2V258.75L9 258.25Z" fill="black"/>
<path d="M489.25 269L497.5 270V270.25H494.25L488.25 269.75L489.25 269Z" fill="black"/>
<path d="M479.25 324L481.25 324.5L484.75 326L484.5 326.5L482.5 325.75L480.25 325.25L479.25 324.75V324Z" fill="black"/>
<path d="M14.25 173.5L16.5 174L20 175V175.75L17.75 175.25L14.25 173.75V173.5Z" fill="black"/>
<path d="M284.25 4.75H284.5L284.25 9L284 10.75L283.25 10.5L283.5 8L284.25 4.75Z" fill="black"/>
<path d="M216 489L216.5 489.75L216.75 490.75L216 494.5H215.75V491.25L216 489Z" fill="black"/>
<path d="M470 350.5L474 352.5L473.25 352.75L469.5 351.25V350.75L470 350.5Z" fill="black"/>
<path d="M10.5 286.25L11.25 286.5L11.5 287L7 287.5H5.5L6.25 287L10.5 286.25Z" fill="black"/>
<path d="M69.25 412.25L69.75 412.5L69.25 412.75V412.25ZM68.5 413L69 413.25L68.25 414.25L67 415.5L66.25 415.75V415.25L67.5 414L68.5 413Z" fill="black"/>
<path d="M478.5 157.25L479.25 157.5L475.5 159.25L474.75 159V158.5L478.5 157.25Z" fill="black"/>
<path d="M25.5 147L27.75 147.75L29.75 148.5V149L29 149.25L25.5 147.25V147Z" fill="black"/>
<path d="M487.75 297.25L490.25 297.75L492 298.25L492.25 298.75L487.75 298V297.25Z" fill="black"/>
<path d="M312.5 10.5H312.75L312.5 12.5L312 14.5H311.25L312 11.5L312.5 10.5Z" fill="black"/>
<path d="M51.25 390.5L51.75 390.75L51.5 391.5L48.75 393.25L48.25 393L51.25 390.5Z" fill="black"/>
<path d="M188.25 486H188.5L188.25 488.25L187.5 489.75L187.25 489L188 486.25L188.25 486Z" fill="black"/>
<path d="M36 366.75L36.5 367L35.5 368L34 368.75L33.25 368.5L36 366.75Z" fill="black"/>
<path d="M14.75 314.25L15.5 314.5L14.25 315.25L12 315.5L12.25 315L14.75 314.25Z" fill="black"/>
<path d="M340 18.75L340.25 19.75L339.5 22L338.75 21.75L339.25 20.25L340 18.75Z" fill="black"/>
<path d="M466.25 131.25L466.75 131.5L465.5 132.5L464 133.25L464.25 132.25L466.25 131.25Z" fill="black"/>
</svg>
